<svg width="64" height="63" viewBox="0 0 64 63" fill="none" xmlns="http://www.w3.org/2000/svg">
<path d="M28.7633 2.764C29.7535 2.26294 30.8674 2 32 2C33.1326 2 34.2465 2.26294 35.2367 2.764L60.2867 15.4424C60.806 15.7056 61.2387 16.0905 61.5399 16.5572C61.8412 17.024 62 17.5557 62 18.0972V43.1107C61.9997 44.194 61.6816 45.2576 61.0785 46.1911C60.4754 47.1247 59.6093 47.8943 58.57 48.4202L35.2367 60.236C34.2465 60.7371 33.1326 61 32 61C30.8674 61 29.7535 60.7371 28.7633 60.236L5.43 48.4202C4.39118 47.8945 3.52544 47.1254 2.92238 46.1924C2.31932 45.2595 2.00088 44.1966 2 43.1138V18.0972C1.99998 17.5557 2.15881 17.024 2.46005 16.5572C2.76129 16.0905 3.19399 15.7056 3.71333 15.4424L28.7633 2.764Z" stroke="#754E29" stroke-width="4" stroke-linecap="round" stroke-linejoin="round"/>
<path d="M2 16L32 31.3333M32 31.3333L62 16M32 31.3333V62" stroke="#754E29" stroke-width="4" stroke-linejoin="round"/>
<path d="M17 24.2632L47 9M12 32.896L22 38" stroke="#754E29" stroke-width="4" stroke-linecap="round" stroke-linejoin="round"/>
</svg>
